<?xml version="1.0" encoding="utf-8"?>
<!-- Generator: Adobe Illustrator 16.0.0, SVG Export Plug-In . SVG Version: 6.00 Build 0)  -->
<!DOCTYPE svg PUBLIC "-//W3C//DTD SVG 1.1//EN" "http://www.w3.org/Graphics/SVG/1.1/DTD/svg11.dtd">
<svg version="1.1" id="Layer_1" xmlns="http://www.w3.org/2000/svg" xmlns:xlink="http://www.w3.org/1999/xlink" x="0px" y="0px"
	 width="1603.697px" height="405.325px" viewBox="0 0 1603.697 405.325" enable-background="new 0 0 1603.697 405.325"
	 xml:space="preserve">
<path fill="#F47920" d="M27.311,192.437c-12.562-24.233-13.636-49.456-3.026-71.022C43.58,82.199,97.468,63.684,158.381,75.338
	c43.701,8.365,85.485,32.768,119.839,68.674c17.743,18.545,33.508,40.15,46.519,64.217c4.363-3.83,8.605-7.864,12.723-12.128
	c-13.519-24.187-29.709-45.976-47.87-64.78c-36.629-37.923-81.248-63.727-128.016-72.679C93.049,45.531,31.747,67.739,9.031,113.91
	c-13.055,26.535-11.923,57.202,3.187,86.351c10.525,20.304,27.303,38.646,48.522,53.044c19.338,13.123,42.066,22.661,66.288,27.898
	c-1.411-6.045-2.598-12.159-3.554-18.327C80.517,251.73,44.562,225.717,27.311,192.437"/>
<path fill="#F47920" d="M391.379,41.719C377.066,17.346,351.703,2.645,319.96,0.323c-23.455-1.714-48.717,3.425-73.056,14.866
	c-22.252,10.46-42.757,25.839-59.853,44.807c5.849,1.866,11.645,3.985,17.381,6.351c32.177-32.96,75.523-51.912,114.288-49.069
	c26.003,1.902,46.601,13.639,58.001,33.05c22.342,38.044,11.294,95.455-26.868,139.615
	c-46.361,53.646-107.645,77.623-198.209,77.455c1.127,5.71,2.48,11.379,4.064,16.991c45.482-0.288,83.874-6.691,117.071-19.544
	c35.204-13.63,64.622-34.494,89.937-63.787c20.87-24.151,34.733-52.09,40.091-80.799C408.28,90.927,404.329,63.769,391.379,41.719"
	/>
<path fill="#F47920" d="M349.9,221.769c-4.51,4.306-9.133,8.402-13.893,12.271c12.551,41.653,8.222,85.335-12.334,117.237
	c-14.867,23.075-36.382,36.218-60.583,37.008c-0.856,0.027-1.707,0.041-2.562,0.041c-39.263-0.002-77.936-29.332-98.999-73.768
	c-2.506-5.288-4.778-10.776-6.757-16.469c-6.735-19.378-11.09-41.252-12.115-63.617c-2.401-52.421,12.923-105.316,43.918-146.121
	c-5.667-2.069-11.389-3.875-17.157-5.387c-21.513,29.986-35.724,65.665-41.295,103.914c-2.138,14.675-2.979,29.43-2.564,44.047
	c0.712,25.02,5.123,49.634,13.155,72.745c2.007,5.773,4.28,11.37,6.79,16.776c23.719,51.074,68.848,84.882,115.061,84.879
	c1.024,0,2.055-0.017,3.08-0.051c29.944-0.977,56.338-16.884,74.319-44.79C362.418,322.532,366.713,270.262,349.9,221.769"/>
<path fill="#F47920" d="M584.317,242.121h42.619v6.234c0,31.446-25.942,47.168-77.827,47.168c-35.207,0-58.248-5.447-69.118-16.342
	c-10.871-10.891-16.307-33.971-16.307-69.234c0-31.334,5.682-52.391,17.048-63.172c11.365-10.782,33.54-16.172,66.524-16.172
	c31.623,0,52.811,5.251,63.559,15.751c10.747,10.502,16.121,31.138,16.121,61.908v11.792H507.045
	c-0.249,3.594-0.371,5.953-0.371,7.074c0,15.836,2.688,26.393,8.062,31.67c5.373,5.279,16.089,7.918,32.149,7.918
	c15.566,0,25.694-1.543,30.39-4.633C581.968,258.996,584.317,252.342,584.317,242.121 M584.687,196.47l-0.186-6.402
	c0-12.802-2.44-21.112-7.319-24.931c-4.881-3.817-15.473-5.728-31.779-5.728c-15.815,0-26.099,2.303-30.853,6.907
	c-4.757,4.606-7.134,14.656-7.134,30.154H584.687z"/>
<path fill="#F47920" d="M652.842,132.625h42.063l-1.667,27.122l0.926,0.168c8.276-19.428,26.806-29.143,55.591-29.143
	c41.878,0,62.816,17.746,62.816,53.232V293.67h-42.434v-97.031v-6.065l-0.926-11.287c-1.977-12.015-12.354-18.024-31.131-18.024
	c-28.537,0-42.805,12.297-42.805,36.891v95.517h-42.434V132.625z"/>
<path fill="#F47920" d="M1000.371,132.624v164.077c0,26.279-5.837,44.305-17.511,54.076c-11.675,9.77-33.201,14.654-64.578,14.654
	c-30.39,0-50.711-3.705-60.965-11.117c-10.255-7.412-15.38-22.068-15.38-43.967h41.137c0,10.443,2.16,17.152,6.485,20.129
	c4.323,2.975,13.959,4.465,28.907,4.465c26.313,0,39.47-9.883,39.47-29.648v-36.219l-0.927-0.168
	c-7.536,17.184-24.83,25.772-51.885,25.772c-26.808,0-45.121-5.894-54.941-17.687c-9.822-11.791-14.732-33.803-14.732-66.035
	c0-30.323,4.91-51.266,14.732-62.835c9.82-11.565,27.638-17.351,53.459-17.351c28.166,0,46.633,9.492,55.406,28.47h0.926
	l-2.038-26.617H1000.371z M916.799,161.262c-16.307,0-26.776,3.006-31.409,9.013c-4.633,6.008-6.949,19.682-6.949,41.02
	c0,22.686,2.316,37.172,6.949,43.461c4.633,6.291,15.287,9.434,31.965,9.434c16.677,0,27.485-3.227,32.427-9.686
	c4.94-6.457,7.414-20.748,7.414-42.873c0-21.225-2.474-34.926-7.414-41.104C944.84,164.352,933.847,161.262,916.799,161.262"/>
<path fill="#F47920" d="M1073.641,179.286h-43.36c0-19.314,4.939-32.23,14.824-38.744c9.882-6.512,29.463-9.771,58.74-9.771
	c31.872,0,53.429,3.988,64.671,11.961c11.24,7.975,16.862,23.192,16.862,45.652V293.67h-42.434l2.038-22.068l-1.112-0.168
	c-8.153,16.061-26.993,24.09-56.517,24.09c-42.869,0-64.301-16.564-64.301-49.695c0-33.465,21.927-50.201,65.783-50.201
	c29.277,0,47.066,6.122,53.367,18.363h0.741v-26.112c0-12.576-2.409-20.915-7.228-25.016c-4.817-4.098-14.703-6.148-29.648-6.148
	C1084.45,156.714,1073.641,164.239,1073.641,179.286 M1101.993,221.57c-23.968,0-35.949,7.525-35.949,22.572
	c0,10.445,2.471,17.297,7.412,20.553c4.94,3.258,15.317,4.885,31.131,4.885c25.818,0,38.729-7.918,38.729-23.752
	C1143.315,229.656,1129.54,221.57,1101.993,221.57"/>
<path fill="#F47920" d="M1256.038,132.624v167.952c0,32.23-15.75,48.348-47.252,48.348c-4.446,0-9.327-0.451-14.638-1.348v-27.459
	h4.263c10.127,0,15.194-7.58,15.194-22.742V132.624H1256.038z M1256.224,95.901h-42.435V63.726h42.435V95.901z"/>
<path fill="#F47920" d="M1399.152,242.121h42.619v6.234c0,31.446-25.942,47.168-77.827,47.168c-35.207,0-58.248-5.447-69.118-16.342
	c-10.871-10.891-16.307-33.971-16.307-69.234c0-31.334,5.682-52.391,17.048-63.172c11.365-10.782,33.54-16.172,66.524-16.172
	c31.622,0,52.811,5.251,63.559,15.751c10.747,10.502,16.121,31.138,16.121,61.908v11.792h-119.892
	c-0.248,3.594-0.37,5.953-0.37,7.074c0,15.836,2.688,26.393,8.062,31.67c5.373,5.279,16.089,7.918,32.149,7.918
	c15.565,0,25.693-1.543,30.39-4.633C1396.803,258.996,1399.152,252.342,1399.152,242.121 M1399.522,196.47l-0.186-6.402
	c0-12.802-2.44-21.112-7.319-24.931c-4.881-3.817-15.474-5.728-31.779-5.728c-15.814,0-26.099,2.303-30.853,6.907
	c-4.758,4.606-7.135,14.656-7.135,30.154H1399.522z"/>
<path fill="#F47920" d="M1466.132,132.625h42.435l-2.595,22.573l0.927,0.169c10.128-16.846,26.064-25.269,47.809-25.269
	c31.131,0,46.695,17.857,46.695,53.57v11.286h-40.024c0.492-4.38,0.741-7.243,0.741-8.591c0-17.183-7.352-25.774-22.052-25.774
	c-21.002,0-31.501,12.747-31.501,38.239v94.842h-42.435V132.625z"/>
<path fill="#F47920" d="M1558.99,275.995v-3.545h18.105v3.545h-6.943v17.695h-4.219v-17.695H1558.99z M1586.771,272.45l5.427,15.205
	l5.462-15.205h6.037v21.24h-3.896v-17.139l-5.876,17.139h-3.399l-5.93-17.139v17.139h-3.896v-21.24H1586.771z"/>
</svg>
